# xmcd
#
# Track frame offsets: 
#        150
#        15225
#        35475
#        56025
#        71025
#        89025
#        106650
#        130800
#        155550
#        177075
#        198600
#        216075
#        237900
#        252900
#
# Disc length: 3669 seconds
#
# Revision: 0
# Processed by: cddbd v1.5.2PL0 Copyright (c) Steve Scherf et al.
# Submitted via: ExactAudioCopy v1.0b3
#
DISCID=c10e530e
DTITLE=Acoustic Blues Companion - Come On In My Kitchen
DYEAR=2012
DGENRE=Blues
TTITLE0=Before You Accuse Me
TTITLE1=Come on In My Kitchen
TTITLE2=Bell Bottom Blues
TTITLE3=They're Red Hot
TTITLE4=Layla
TTITLE5=Key to the Highway
TTITLE6=Ain't No Sunshine
TTITLE7=Fragile
TTITLE8=Shape of My Heart
TTITLE9=Here Comes the Rain Again
TTITLE10=Nothing Ever Happens
TTITLE11=Fever
TTITLE12=Minnie the Moocher
TTITLE13=Tears in Heaven
EXTD=
EXTT0=
EXTT1=
EXTT2=
EXTT3=
EXTT4=
EXTT5=
EXTT6=
EXTT7=
EXTT8=
EXTT9=
EXTT10=
EXTT11=
EXTT12=
EXTT13=
PLAYORDER=
